<svg xmlns="http://www.w3.org/2000/svg" viewBox="0 0 64 64" fill="none">
  <rect width="64" height="64" rx="8" fill="#19303D"/>
  <path d="M32 12C21.507 12 13 20.507 13 31c0 10.493 8.507 19 19 19s19-8.507 19-19c0-10.493-8.507-19-19-19zm0 4c8.284 0 15 6.716 15 15 0 8.284-6.716 15-15 15-8.284 0-15-6.716-15-15 0-8.284 6.716-15 15-15z" fill="#33DACD"/>
  <path d="M32 22c-4.971 0-9 4.029-9 9s4.029 9 9 9 9-4.029 9-9-4.029-9-9-9zm0 4c2.761 0 5 2.239 5 5s-2.239 5-5 5-5-2.239-5-5 2.239-5 5-5z" fill="#33DACD"/>
  <circle cx="32" cy="31" r="3" fill="#33DACD"/>
  <path d="M46 31h-4" stroke="#33DACD" stroke-width="3" stroke-linecap="round"/>
  <path d="M22 31h-4" stroke="#33DACD" stroke-width="3" stroke-linecap="round"/>
  <path d="M32 22v-4" stroke="#33DACD" stroke-width="3" stroke-linecap="round"/>
  <path d="M32 44v-4" stroke="#33DACD" stroke-width="3" stroke-linecap="round"/>
</svg>
